      <svg version="1.1" id="Layer_1" xmlns="http://www.w3.org/2000/svg" xmlns:xlink="http://www.w3.org/1999/xlink" x="0px" y="0px" viewBox="0 0 600 600" style="enable-background: new 0 0 600 600; max-width: 185px" xml:space="preserve">
        <style type="text/css">
            .st0 {
                fill: #a32035;
            }
  
            .st1 {
                fill: #0032a0;
            }
  
            .st2 {
                fill-rule: evenodd;
                clip-rule: evenodd;
                fill: #0032a0;
            }
  
            .st3 {
                fill-rule: evenodd;
                clip-rule: evenodd;
                fill: none;
            }
        </style>
        <g>
            <g>
                <path class="st0" d="M296.8,301.8l2.2-4.1c4.6,3.6,11.2,6.9,20.7,6.9c10.4,0,18.5-4.1,18.5-13.1c0-5.7-3.9-8.7-9.7-10.5 c-4.8-1.4-10.5-2.3-15.1-3.6c-7.6-2.2-13.6-6.5-13.6-14.5c0-11,9-17.8,22.3-17.8c8.4,0,15.6,2.6,20.7,6.2l-2.1,4 c-3.9-2.6-10.9-5.9-18.4-5.9c-9.6,0-17.4,4.7-17.4,12.9c0,5.9,4.3,8.7,10,10.3c4.1,1.2,9.8,2.3,14.8,3.6c7.8,2,13.6,6.1,13.6,14.7 c0,12-9.7,18.1-23.6,18.1C312.5,308.8,303.7,306.5,296.8,301.8z" />
                <path class="st0" d="M356.8,245.9h4.9v28.3h38.8v-28.3h4.9v61.8h-4.9v-29.2h-38.8v29.2h-4.9V245.9z" />
                <path class="st0" d="M419.1,276.9c0-18.7,13.1-31.9,30.6-31.9c17.7,0,30.8,13.2,30.8,31.9c0,18.7-13.1,31.9-30.8,31.9 C432.3,308.8,419.1,295.5,419.1,276.9z M475.3,276.9c0-16.2-11.1-27.6-25.6-27.6c-14.4,0-25.5,11.4-25.5,27.6 c0,16.1,11.1,27.6,25.5,27.6C464.2,304.5,475.3,293,475.3,276.9z" />
                <path class="st0" d="M494.3,245.9h22.2c14.5,0,22.1,7,22.1,18.8c0,12-7.4,18.9-22,18.9h-17.4v24.1h-4.9V245.9z M533.5,264.7 c0-9.4-5.8-14.5-16.7-14.5h-17.6v29.1h17.6C527.8,279.4,533.5,274.3,533.5,264.7z" />
            </g>
            <g>
                <path class="st1" d="M61.4,276.7c0-18.1,11.2-32,31.4-32c9.8,0,17.7,3.5,23.2,9.7l-7.8,7.3c-3.9-3.6-9.4-6.1-15.4-6.1 c-11.8,0-18.9,9.5-18.9,21.2c0,11.8,7,21.3,18.9,21.3c5.9,0,11.5-2.4,15.4-6l7.8,7.2c-5.5,6.1-13.4,9.7-23.2,9.7 C72.5,308.9,61.4,294.8,61.4,276.7z" />
                <path class="st1" d="M146.7,244.7c0.2-0.4,0.4-0.5,0.7-0.5c0.2,0,0.4,0,0.6,0.5c1.6,2.9,16.2,33.5,29.8,63.1h-13.6l-3.9-8.9H134 l-3.8,8.9H117C130.6,278.1,145,247.8,146.7,244.7z M156.1,288.3l-8.9-20.4l-8.9,20.4H156.1z" />
                <path class="st1" d="M184.3,245.8H209c15.8,0,23.4,6.7,23.4,19.2c0,10.6-5.7,16.7-15.6,18.6l17.5,24.2h-14.1l-16.4-23.4h-7.3v23.4 h-12.2V245.8z M220,265.4c0-6.3-4.4-8.9-11.5-8.9h-12v17.8h12.1C216.1,274.3,220,271.3,220,265.4z" />
                <path class="st1" d="M243,245.8h45.6v10.9h-33.4v14.5H286V282h-30.8v14.9h33.4v10.9H243V245.8z" />
                <path class="st0" d="M296,301.8l2.2-4.1c4.6,3.6,11.2,6.9,20.7,6.9c10.4,0,18.5-4.1,18.5-13.1c0-5.7-3.9-8.7-9.7-10.5 c-4.8-1.4-10.5-2.3-15.1-3.6c-7.6-2.2-13.6-6.5-13.6-14.5c0-11,9-17.8,22.3-17.8c8.4,0,15.6,2.6,20.7,6.2l-2.1,4 c-3.9-2.6-10.9-5.9-18.4-5.9c-9.6,0-17.4,4.7-17.4,12.9c0,5.9,4.3,8.7,10,10.3c4.1,1.2,9.8,2.3,14.8,3.6c7.8,2,13.6,6.1,13.6,14.7 c0,12-9.7,18.1-23.6,18.1C311.7,308.8,302.9,306.5,296,301.8z" />
                <path class="st0" d="M356,245.9h4.9v28.3h38.8v-28.3h4.9v61.8h-4.9v-29.2h-38.8v29.2H356V245.9z" />
                <path class="st0" d="M418.3,276.9c0-18.7,13.1-31.9,30.6-31.9c17.7,0,30.8,13.2,30.8,31.9c0,18.7-13.1,31.9-30.8,31.9 C431.4,308.8,418.3,295.5,418.3,276.9z M474.5,276.9c0-16.2-11.1-27.6-25.6-27.6c-14.4,0-25.5,11.4-25.5,27.6 c0,16.1,11.1,27.6,25.5,27.6C463.4,304.5,474.5,293,474.5,276.9z" />
                <path class="st0" d="M493.5,245.9h22.2c14.5,0,22.1,7,22.1,18.8c0,12-7.4,18.9-22,18.9h-17.4v24.1h-4.9V245.9z M532.7,264.7 c0-9.4-5.8-14.5-16.7-14.5h-17.6v29.1h17.6C526.9,279.4,532.7,274.3,532.7,264.7z" />
            </g>
            <path class="st2" d="M443.9,343.3c0.5-0.1,0.3,0,0.5,0c0.8,0,2,0,2.3,0.1c0.6-0.1,1.6,0.1,1.7,0.2c-0.1,0-0.7,0-0.5,0 c0.3,0,0.6,0,0.9,0c-0.1,0-0.2-0.1,0.1-0.1c0.5,0.1,1,0,1.5,0c-1.3,0.1-1.4,0.2-2.1,0.1c-0.6,0-1.2,0-1.8,0 c-0.4-0.1-0.1-0.1-0.6-0.1c0.1,0,0.7,0,0.5-0.1c-0.5,0-1.2,0-1.7,0c0.5,0.2,0.9,0.3,1.4,0.5c1.5-0.1,3.8,0,5.7-0.2 c0.5,0,0.3,0.1,0.5,0.2c4.5-0.1,8.6-0.3,12.5,0c-3.4,0.1-7,0-10.2,0.1c-0.5,0-0.7,0.2-1,0.3c-2.8-0.1-7.1,0-10.5,0 c-0.5,0.2-0.6,0.6,0.8,0.6c-0.4,0.1-0.6,0.1-1.2,0c0,0.1,0.1,0.1,0.3,0.2c-1.9,0-2.2,0-4,0c-0.4,0-0.5,0.3-0.2,0.4 c1.5-0.1,2.9,0.1,4.3,0.1c0.8,0,1.4-0.2,2.2-0.2c0.4,0,0.4,0.1,0.8,0.1c0.4,0,1-0.1,1.4-0.1c0.5,0,0.7,0.1,1.2,0.1 c1.8,0.1,3.7-0.3,5.5-0.2c1.4,0,2.7,0.4,4.3,0.3c-0.6,0.3-1.8,0.1-2.9,0.1c-3.6,0-7.7,0.4-10.7,0.4c-0.4,0.3,0.3,0.4,0.6,0.6 c1-0.1,1.7,0,2.5-0.1c0.5,0-0.2-0.1,0.2-0.2c2.2,0,4.3-0.1,6.9-0.2c0.3,0.2,0.9,0.2,0.5,0.5c0.4,0,0.4,0,0.7,0.1 c0.7,0,0-0.1,0.2-0.2c0.5,0.3,1.4-0.1,1.8,0.2c3-0.4,5.6,0.1,9.1-0.3c-2.3,0.3-5.3,0.4-8.4,0.4c-0.7,0,0.1,0.2-0.4,0.2 c-0.9,0-1.5-0.2-2.3-0.2c-1,0-1.3,0.2-2.2,0.2c-1,0.1-2.1,0-3.2,0.1c-1,0.1-3,0.9-3.6,1c-0.6,0.1-4.6,0.1-6.2,0.2 c-0.5,0.1,0.7,0.2,0.1,0.3c-0.6-0.1-2.7-0.1-3.2,0.2c-1.7-0.1-2.7,0.1-4.7,0c-0.7,0-0.1,0.3-0.4,0.3c-1.2,0.2-14.3,1.3-18.7,1.3 c-0.7,0-0.9,0.3-1.5,0.1c-0.2,0-0.2,0.1,0,0.1c-2.4,0.2-7.8-0.1-9.4,0.5c-0.7-0.1,0.3-0.1-0.1-0.3c-0.8,0.2-2.1,0.1-2.8,0.2 c0.3,0,0.6,0,1,0.1c0,0.2-0.7,0-1.3,0.1c0,0-0.1,0-0.1-0.1c-2.4,0.1-4.8-0.2-6.7,0.1c-0.5,0-1.3,0-1.5-0.2c-1.1,0.1-3,0.3-4.2,0.1 c-7,0.3-14.1,0.3-21.2,0.4c0.4,0,0.7,0,1,0.1c-1.8,0-3.4-0.1-4.7-0.1c-7.6,0.1-15.2,0.1-22.7,0.4c-3.7-0.2-8.3,0.1-11.9,0.2 c-1.2,0-2.2-0.2-3.3,0.1c-3.1,0-6.6,0-9.9,0.1c0.1,0.1,0,0.1-0.2,0.2c-0.1-0.1-0.7-0.1-1-0.1c0,0,0.1,0,0.1,0c-0.3,0-0.5,0-0.8,0 c-0.3,0.1,0.5,0.2,0.2,0.4l0.3,0c0.3-0.1-0.2-0.2,0.4-0.2l-0.3,0c0.8,0,2.4,0,3.5,0c0.2,0,0.2,0.1,0,0.2l0.5,0 c0.2-0.1-0.3-0.1-0.3-0.2c0.1-0.1,0.4,0.1,0.5,0.1c0.5,0,0.9,0,1.4-0.1c-0.4,0.2,0.8,0.1,1.4,0.1c-0.3,0.1-1,0-1.2,0.1 c-0.9-0.1-1.3-0.1-2.1,0c0.2,0.1,0.7,0,0.9,0c-0.3,0.3,0.4,0.2,1.4,0c-0.6,0.1-0.2,0.3,0.2,0.4c-0.7,0-0.7-0.1-0.9-0.1 c-0.3,0.1-0.4,0.1-0.9,0.2c-0.4,0,0-0.2-0.5-0.1c-0.4,0.1-0.4,0.3-1.2,0.2c0-0.1,0.5,0,0.5-0.1c-0.8-0.1-0.8,0-0.7,0.1 c-0.6,0-0.4-0.1-0.3-0.1c-0.1,0.1-0.9,0.1-1.1,0.2c0.1,0,0.4,0,0.7,0c-0.2,0.1-0.3,0.1-0.7,0.1c-8.1,1.5-87.6,1.9-117.6,1.9 c-30.7,0-52-1.2-52.4-1.2c-3.8-0.3-14-2.3-16.6-3.6c-2.5-1.3-8.3-2.5-8.7-11c-1.7-36.7,58.2,1.9,88.7-5.8c5.7-0.3,6.4-0.2,9.7-0.2 c42.4-1,91.2-2.1,102.2-1.9c0-0.1,0.5-0.1,0.8,0c-0.2,0-0.5,0-0.4,0c0.7,0.1,0.5,0,0.9,0l0.4,0.1c2.5,0,4.3,0.1,6.8,0.1 c-0.1,0-0.1,0.1,0.1,0.1l0.5-0.1c4.6,0.2,9.4,0.1,14,0.3c2.1,0,4.3,0,6.3,0.1c0.8-0.1,1.5,0.1,2.3,0c1.2,0.1,2.6,0,3.8,0.1 c3-0.1,5.8,0.2,8.8,0.1l0.4,0.1c2.3,0,5,0.2,6.9,0.1c0.7,0.1,1.8,0,2.2,0.1l0.5-0.1c0.6,0.1,1.4,0.1,2.4,0.1c1.7,0,4.4,0.2,5.1,0.1 c3.9,0.2,8,0.2,11.9,0.4c0.1,0,0.1,0,0.1-0.1c2.3,0.1,4.5,0.3,6.9,0.2l0.6,0.1c1-0.1,1.8,0,2.5,0.1c0.2,0-0.1-0.1,0-0.1 c0.5,0,1,0.2,1.5,0.1c2.2,0,4.3,0.1,6.3,0.2c0,0,0.1,0,0.2,0c-0.1,0-0.1,0-0.2,0c-0.2,0,0,0,0.1-0.1c2.6,0.2,5.2,0.2,7.8,0.3 c0.3,0,0,0.1,0.4,0.1c0.6-0.1,1,0,1.5-0.1c0.6,0.2,1.4,0.1,2.1,0.2c1.1-0.1,3,0.1,4.4,0.1c0,0.2,2.2,0,3,0.2c0.4,0,0.1-0.1,0.3-0.1 c0.3,0,0.7,0.1,1.3,0c1.1,0.1,2.3,0.2,3.6,0.2c0.5,0.1-0.6,0.1,0,0.2c1.3-0.1,2.3-0.1,3.7,0c0,0.1-0.5,0-0.9,0.1 c0.4,0.1-0.2,0.1,0.3,0.1c0.6-0.1,1.5-0.1,1.9,0c-0.2,0-0.9,0-0.8,0c0.7,0,1.4,0.1,2.2,0c0.3,0,0,0.1,0.4,0.1c0.6,0,1,0.1,1.4-0.1 c0.9,0.2,1.9,0.1,2.8,0.1c0.4,0-0.7-0.1,0-0.1c0.6,0.1-0.1,0.2,0.6,0.2c0-0.1,0.4-0.2,0.8-0.1c-0.2,0-0.5,0-0.4,0.1 c1.2,0.1,2.5,0.1,3.8,0.2c0.2,0,0.3-0.1,0.4-0.1c0.5,0.2,1.5,0,2.2,0.1c-0.7,0.2-1.4,0-2.3,0c0.9,0.1,2.6,0.2,2.9,0.1 c0.2,0,0.4,0,0.6,0c-0.2,0-0.4,0-0.2,0.1c0.4-0.1,0.6,0,1,0c-0.2,0-0.4,0-0.6-0.1c0.8-0.1,0.6,0.2,1.4,0.1c0.3,0.1,0.7,0,1,0.1 c-0.1,0.1-0.7,0-0.5,0.1c1,0.1,1.9,0.1,3,0.1c-0.1,0-0.2,0.1-0.2,0.1c0.3,0,0.5,0,0.8,0c0.2,0,0-0.1,0.2-0.1 c0.4,0.1,0.8,0.1,1.2,0.1c-0.2,0,0-0.1,0.3-0.1c-0.4,0.1,0.8,0,1.2,0.1c0.1,0-0.6,0.1-0.4,0.1c0.6-0.1,1,0,1.5,0 c-0.4-0.1,0.7-0.1,1,0c-0.4,0-0.8,0.1-0.5,0.2c0.2,0,0.5-0.1,0.7,0c-0.5,0.2,1.7,0.2,2.4,0.2c-0.1,0-0.2-0.1,0.1-0.1 c0.4,0.1,0.3,0,0.7,0l0.5,0.1c-0.6,0-0.2,0.1-0.3,0.1c-0.7-0.1-0.8-0.1-1.6-0.1c-0.5-0.2-0.5,0-1.2-0.2c0.2,0.1-0.5,0.1-0.9,0.1 c0.2,0,0.5,0,0.4-0.1c-0.3,0-0.2-0.1-0.6-0.1c-0.2,0.1,0,0.1-0.5,0.2c-0.3-0.1,0.7-0.1,0-0.2c-0.7,0.1-1.1-0.2-1.8,0 c0.2,0.1,0.6,0.1,0.2,0.2c-0.3-0.1-0.4-0.1-0.3-0.2c-1.2,0.1-2.3,0-3.4-0.1c0.1,0,0,0-0.1,0.1c0.2,0,0.5,0,0.6,0.1 c-0.7,0.1-0.7-0.1-1.2-0.1c-0.1,0.1-0.2,0.1-0.6,0.1c0.8-0.1-0.2-0.1-0.3-0.2c-0.8,0.1-3.1-0.2-3.7,0c-0.5-0.1,0-0.1-0.1-0.1 c-0.8,0-1.5-0.1-2.4-0.1c0.3,0,0.4-0.1,0.3-0.1c-0.3,0-0.6,0-1,0c0.1,0,0.4,0.1,0.3,0.1c-0.3,0-0.6,0-0.9-0.1 c0.4,0,0.5-0.1,0.1-0.1c-1,0.1-2-0.2-2.8,0c-0.3,0-0.4,0-0.4-0.1c-0.2,0.1-0.9,0-0.7,0c0.1,0,0.4,0,0.3,0.1c-0.7,0-1.3-0.1-1.9-0.2 c0.1,0-0.1,0-0.1,0.1c0.2,0,0.4,0,0.5,0.1c-1.6,0-2.9-0.2-4.5-0.1c-0.5-0.1,0.3,0,0-0.1c-0.9-0.1-1.9-0.1-2.8-0.1 c-1.1,0.1-2.3-0.2-3.1,0c-0.2-0.1-1.2,0-1.7-0.2c-0.6,0.1-1,0-1.5,0c0.1-0.1-1.7-0.2-2.3,0c-0.5-0.1,0-0.1-0.2-0.1 c-0.4,0-0.6-0.1-1-0.1c0.1,0.1-0.3,0.1-0.6,0.1c0.1,0,0.8,0,0.5-0.1c-0.4-0.1-1,0.1-1.5,0c0.1-0.1-0.1-0.1-0.4-0.1 c-0.6,0.1-1.2,0-1.8,0.1c0.3,0,0.4,0,0.2,0.1c-0.1,0-0.2,0-0.3,0c-0.1,0,0.4,0.1,0.2,0.1c-1-0.1-1,0-2-0.1c0.3,0,1.3,0.1,0.6-0.1 c0.3-0.1,1.1,0.1,1,0c-0.4,0-0.8,0-1.1-0.1c-0.4,0.1-0.7,0-1.2,0c0.2,0.1,0.4,0,0.7,0.1c-0.4,0,0,0.1-0.1,0.1c-0.4,0.1-0.7,0-1,0 c0.2,0,0.5,0,0.4-0.1c-0.2,0-0.3,0-0.4,0c-0.5,0,0,0.1-0.4,0.1c-1-0.1-1.2,0.2-0.3,0.3c0.8-0.1,1.6,0,2.4,0c0.2,0,0.4,0.1,0.6,0.1 c0.1-0.1,1.3,0,1.7,0.1c0.8,0.1,2.1,0,2.2,0.1c-0.3,0-0.7,0-1,0c0.6,0.2,2.7,0,3.5,0.2c1.4-0.1,3.5,0.2,4.2,0 c0.2,0.1,0.4,0,0.6,0.1c0.3-0.1,1.5,0,1.4,0.1c1.1,0,2.2-0.1,3.2,0.1c0.1,0-0.6,0.1-0.4,0.1c0.2,0,0.8,0,0.5-0.1 c1.3,0,2.4,0.2,3.7,0.1c-0.1,0.1,0.7,0.1,0.8,0c0.2,0,0,0.1,0.1,0.1c0.6,0,1.3,0.1,1.6,0c0.4,0,0.9,0.1,1.3,0.1 c0.5,0.2,3.3,0.1,4.6,0.3c1.6-0.1,2.8,0.3,4.4,0.1c0.2,0.1,0.5,0,0.8,0.1c-0.9,0.1-2,0-3.2,0c-0.1,0-0.2,0.1-0.2,0.1 c0.3,0,0.7,0,1,0c0.5,0.1-0.8,0.1,0,0.2c0-0.1,1.2,0,1-0.1c0.5,0.1,1,0,1.3,0.1c-0.2-0.1,0.2-0.1,0.4-0.2c0.6,0.1,1.2,0.1,1.7,0 c0.4,0,0,0.1,0.1,0.1c0.7,0,2,0,2.3,0.1c-0.5-0.1-1.1,0-1.7,0c0.3,0.1-0.1,0.1,0.4,0.2c0-0.1,0.4,0,0.8-0.1 c-0.3,0.1,2.3,0.3,2.8,0.2c0.5,0.1-0.3,0.1,0.1,0.1c0.1,0,0.2,0,0.3,0c0.2-0.1,0.5-0.1,0-0.2c0.3,0,0.7,0,1,0.1 c-0.1-0.1-0.8-0.1-0.6-0.1c0.3,0.1,0.9,0,1.2,0.1c-0.3,0.1-0.7,0-0.8,0.1c0.4,0.1,0.8,0,1.2,0.1c-0.3,0,0.2,0.1-0.1,0.1 c-0.3,0-1.2,0-0.9,0.1c0.3,0,0.7-0.1,0.9,0c-0.5,0.1,0.7,0.1,0.1,0.2c0.4,0,1.2,0,0.7-0.1c-0.3,0.1-0.2,0-0.4-0.1 c-0.1,0-0.2,0-0.3,0c0.3,0,0.2-0.1,0.4-0.1c0.5,0,0.1,0.1,0.6,0.2c0.2,0,0.4,0,0.6,0c-0.1-0.1-0.7,0-0.4-0.1c0.8,0.1,1.6,0,2.3,0.1 c-1,0-1.3,0.1-2.3,0.1c0.1,0,0,0,0.1,0.1c0.9,0,1.9,0,2.9,0c0.2,0,0,0.1,0,0.1c0.1,0,0.2,0,0.4,0c0.2,0-0.1-0.1,0.1-0.1 c0.4,0,1.2,0,1.2,0.1c0.7,0,2.2-0.2,2.4,0c-0.2,0-0.9,0.1-2,0.1c0.8,0.1,1.7-0.1,2.4,0.1c-0.5-0.1,0.3-0.1,0.1-0.2 c0.2,0,0.4,0,0.5,0c-0.5,0-0.7,0.1-0.5,0.2c0.6-0.1,0.8,0,1.1,0.1c1.5-0.1,2.1,0.1,3.4,0c0,0-0.1,0-0.1,0c0.3,0,0.7,0,1,0 c-0.1,0-0.3,0-0.4,0l0.3,0.1c-0.3,0.1-1,0-0.8,0c0.2,0,0.3,0,0.3,0c-0.6,0-1.2,0-1.8,0c0,0,0,0,0,0c0.8,0.1,1.7-0.1,2.4,0.2 c0.7,0,1.4,0,2,0c0.3,0,0.2-0.1,0.7-0.1c0.1,0,0.3,0.1,0.4,0.1c-0.3-0.1-0.1-0.1,0.2-0.1c0.5,0.1-0.3,0.1-0.7,0.1 c0.7,0-0.3,0,0.1,0.1c0.3-0.1,0.8-0.1,0.8,0c-0.6,0-0.9,0.1-1.4,0c0.1,0,0,0,0.1,0.1c0.3,0.1,0.9,0,0.9,0.1c-0.8,0-1.5-0.1-2.4-0.1 c-0.1,0,0.4,0.1,0.1,0.1c-0.3-0.1-0.6,0-0.8-0.1c0.1,0,0.4,0,0.3-0.1c-0.4,0-1.5,0-1.3,0.1c-0.2-0.1-0.5,0-0.7-0.1 c0.4-0.1,0.7,0.1,1.1,0c-0.7-0.1-0.9-0.1-1.3-0.2c-0.2,0-0.3,0-0.5,0c0,0.1,0.1,0,0.4,0.1c-0.2,0-0.2,0.1-0.2,0.1 c-0.4,0.1-0.8,0-1.2,0c0.1,0.1,1.1,0,0.5,0.1c-0.6,0-1.8-0.1-2-0.1c0.2,0,0.5,0,0.8,0c-0.7-0.1-2-0.1-2.4-0.2c-0.2,0-0.2,0.1,0,0.1 c-0.4,0.1-0.8,0-1.2,0c-0.7-0.2-1.9-0.1-3.2-0.1c0,0,0,0,0,0c-1,0-2,0-3,0c0.3,0,0.5,0,0.8,0c-0.4,0,0.6,0.1,0.1,0.1 c-0.4-0.1-0.9-0.1-1.3-0.1c0.1,0,0.2,0,0.3,0c-2.3,0-4.7,0-7,0.1c0.1,0.1,0,0.1,0.1,0.1c0.3,0,0.8-0.1,0.8-0.1c0.6,0,0.9,0.1,1,0.1 c0.3,0,0.3-0.1,0.7,0c-0.2,0.1-0.9,0.1-0.7,0.1c0.4,0,1.1,0,1.1,0.1c0.3,0,0.5,0,0.8,0c-0.1-0.1,0-0.1,0.4-0.2c0.3,0.1-0.3,0,0,0.1 c0.7-0.1,1,0.1,1.9,0.1c-0.6,0.1-0.8,0-0.7,0.1c-0.2-0.1-0.5,0-0.7,0c-0.4-0.1-0.8-0.1-1.2-0.1c0.2-0.1,0.8,0,0.6-0.1 c-0.6,0.1-1-0.1-1.3,0c-0.7-0.1-1.2-0.1-2.1-0.2c-0.2,0-0.4,0-0.4,0.1c-0.1,0-0.3,0-0.4,0c-0.5-0.1,0.4-0.1,0.1-0.1 c-0.5-0.1-0.8,0-0.8,0.1c-0.4-0.1-0.1-0.1-0.4-0.1c-0.7,0-1,0.1-1.6-0.1c-0.1,0-0.2,0-0.3,0c0,0,0,0-0.2,0.1c-0.2,0-0.4,0-0.5,0 c0,0-0.1,0-0.1,0c0,0,0,0,0.1,0.1c-0.2,0-0.4,0-0.5,0c-0.8,0-1.6,0-2.5,0.1c1.3,0.1,2.6,0.1,3.8,0.2c-0.4,0.1-0.7,0-1,0 c-0.2,0.1,0.4,0.1,0,0.1c-0.1,0-0.2-0.1-0.2-0.1c-0.7,0-0.8,0.1-1.4,0.1c0.7,0,0.1-0.1,0.5-0.1c0.2,0,0.3,0.1,0.5,0.1 c0,0,0.4-0.1,0.1-0.1c-0.1,0.1-0.5,0-1.2,0c0.3,0.1-0.5,0.1-0.6,0.1c-0.9-0.1-3.7,0-4.2-0.2c-0.2,0,0.3,0.1-0.2,0.1 c-0.5-0.2-0.7-0.1-1.5-0.2c0.6,0,0.5-0.1,0.9,0c-0.1,0-0.3,0-0.1,0.1c0.2,0,0.8,0,0.9-0.1c-0.5,0-1.9-0.1-2.2,0.1 c-0.4,0-0.8,0-1.2-0.1c0.3-0.1,1,0,0.8-0.1c-0.2,0-0.5,0-0.7,0c-0.2,0-0.4,0-0.6,0c0.1,0.2-1.5,0-1.8,0.1c-0.1-0.1,0.2,0,0.2-0.1 c0,0-0.1,0-0.2,0c-0.3,0-0.5,0-0.7,0c0,0,0,0,0,0c0,0,0,0-0.1,0c-0.2,0-0.4,0-0.5,0c-1.3,0-2.1,0.2-2.2,0.6c0.1,0,0.2,0,0.3,0 c0,0-0.2,0-0.3,0c0,0,0,0.1,0,0.1c0.4,0,0.9,0,1.3,0c-0.2,0-0.2,0.1-0.2,0.1c1.7,0,1.5,0,2.8,0.1c-0.3,0-0.4,0.1-0.3,0.1 c0.6-0.1,0.4,0.1,0.9,0c0.3,0,0.5-0.1,0.5-0.1c0.2,0,0.4,0.1,0.6,0.1c0.2,0-0.2-0.1,0-0.1c0.8,0.1,0.4,0.1,1.3,0.1 c-0.1,0-0.6-0.1-0.1-0.1c0.8,0.2,2.9,0.2,2.1,0.3c0.5,0.1,1.1,0,1.7,0c-0.1,0-0.4,0-0.3,0.1c0.7,0,0.5,0.1,1.2,0.1 c0.3-0.1,0-0.2,0.3-0.2c0.1,0.1,1.2,0.2,1.5,0.1c3.4,0.2,6.9,0.4,10.3,0.6c-0.4,0.1-0.7-0.1-1,0c0,0.1-0.5,0-0.3,0.1 c0.2,0,0.3,0,0.4,0c0.1,0,0.1-0.1,0.4-0.1c0.5,0.1,0,0.1,0.1,0.1c0.3,0,0.5,0,0.8,0c0.1,0,0.2-0.1,0.2-0.1 c-0.5-0.1-0.5-0.2-0.6-0.2c0.3,0,0.6,0,0.9,0.1c-0.2,0-0.7,0-0.3,0.1c0.9,0,1.6,0.2,2.6,0.1c0.2,0.1,0.3,0.1,0.4,0 c0.2,0.1,0.6,0.1,0.8,0.1c-0.5,0-0.9,0-1.4,0c0.6,0.2,1.5,0.1,2.2,0.1c-0.2,0.1,0.7,0.1,0.9,0.1c-0.1,0.1-0.9,0.1-0.7,0.2 c0.6-0.1,1,0,1.5,0c0.5-0.1,0.2,0,0.5-0.1c0.3,0.1,0.3,0.1,0.8,0.2c-0.4,0-0.3,0.1-0.5,0.2c-0.4,0-0.7-0.1-1.1,0 c-0.9-0.2-1.9-0.1-3.1-0.2c-0.8,0.1-1.3-0.1-2,0c0.1,0,0.2,0.1-0.1,0.1c-0.3-0.1-0.6,0-0.8-0.1c0.1,0,0.5-0.1,0.1-0.1 c-0.1,0-0.2,0-0.4,0c-0.7,0,0,0.1-0.7,0.2c-0.4-0.1-0.5-0.1-1,0c-0.1,0-0.2-0.1-0.2-0.1c-0.3,0-0.7,0.1-0.9,0c0-0.1,1,0,1.5,0 c-0.1,0,0.4-0.1,0-0.1c-0.6,0-1.1,0-1.6,0c-0.5,0-0.2-0.1-0.8,0c-0.3,0,0-0.1-0.4-0.1c-0.3,0.1-0.6,0-0.8,0.1 c-0.2,0-0.1-0.1-0.6-0.1c0.1,0.1,0.4,0.1-0.3,0.2c-0.1-0.2-0.6,0-0.8-0.2c-0.4,0.1-0.4,0-1,0.1c0.3,0.1,1.2,0,1.1,0.1 c-0.7,0-1.3-0.1-2-0.1c0,0.1-1.6,0-2.3,0c0.6,0.1,2.3,0.2,1.7,0.3c0.2,0,0.5,0,0.7,0c-0.2,0-0.2-0.1,0-0.1c0.9,0.1,0.6-0.1,1.4-0.1 c-0.3,0-0.6,0.1-0.4,0.1c0.2,0,0.4,0,0.5,0l0.5-0.1c0.3,0.1,0.6,0.1,0.9,0.1c-0.4,0.1-0.7,0-1.1,0.1c0.2,0,0.4,0.1,0.6,0.1l0.7-0.1 c-0.3,0-0.4,0-0.2-0.1c0.7,0.1,1.4,0.1,2.1,0.1c1.3-0.3,3.1,0.2,4.3,0.1c-0.5,0-0.6,0.1-0.7,0.1c-0.6-0.1-1.6-0.3-2.1-0.1 c-0.3-0.1-0.8-0.1-1.2-0.1c0,0.1,0.7,0,0.5,0.1c0.6-0.1,1.1,0.2,1.4,0c0.5,0.2,1.2,0.1,1.7,0.2c-0.3,0-0.6,0-0.4,0.1 c0.3,0,0.4,0.1,0.4,0.1c0.1-0.1,0.5,0,0.8-0.1c-0.3,0-0.4,0-0.2-0.1c0.5,0.1,1,0,1.4,0.1c-0.2,0-0.5,0-0.4,0.1 c0.6,0,0.6-0.1,1.2-0.1c0.2,0.2,1,0.1,1.3,0.2c0.5,0,1,0.1,1.4,0.1c-0.2,0-0.3,0.1-0.2,0.1c0.4,0,1,0.2,0.9,0 c0.6,0.1,0.1,0.1,0.2,0.1c0.3,0,0.5,0.1,0.8,0c0.2-0.1-0.2-0.1-0.5-0.1c0.1-0.1,0.3,0,0.6-0.1c0.2,0.1,0.4,0.1,0.7,0 c-0.1,0.1,0.8,0.1,0.3,0.2c-0.2,0-0.3-0.2-1-0.1c0.8,0.1,0.3,0.1,0.5,0.2c0.6-0.1,0.9,0.1,1.4,0.1c-0.3,0.1-0.5,0-0.8,0.1 c-0.3-0.1-0.8-0.1-1.2-0.1c0.1,0,0,0.1-0.2,0.1c-0.1-0.1-1.3-0.1-1.9,0c-0.3,0,0-0.1-0.4-0.1c-0.5,0-1.4,0-1.4-0.1 c0.3-0.1,0.5,0.1,0.8,0c0-0.1,0.9-0.1,0.6-0.2c-0.4,0-0.2,0-0.6,0.1c-0.3-0.1-0.7,0-1-0.1c-0.5-0.1,0.3-0.1-0.1-0.1 c-0.1,0.1-0.8,0.1-1.2,0.1c-0.1,0.1-0.2,0.1-0.5,0.2c-0.6-0.1-1.3,0-1.9-0.1c0.1,0,0.7,0,0.5-0.1c-0.7,0-0.6-0.1-1.3,0 c0-0.1-1-0.2-1.5-0.1c-0.4-0.1,0.2-0.1-0.3-0.2c-0.1,0.1-0.8,0-1,0.1c-0.2-0.1-0.4,0-0.6-0.1c0.2,0,0.4,0,0.2-0.1 c-0.2,0-0.4,0-0.6,0c-0.4-0.1,0.1-0.1-0.1-0.2c-0.5,0.1-0.9,0-1.4,0c0.4,0.1,0.8,0.1,1.2,0.1c-0.8,0-1.5-0.1-2.3-0.1 c0.9,0.1,1.8,0.2,2.7,0.2c-0.1,0-0.4-0.1,0-0.1c0.4,0.1,0.1,0.1,0.6,0.1c-0.1,0-0.4,0.1-0.4,0.1c-0.9-0.2-2-0.3-2.8-0.2 c0.3,0-0.4-0.1-0.5,0c-0.4-0.1,0.3-0.1,0.1-0.1c-0.3,0-0.6,0-0.9,0c0.1,0,0.9,0.1,0.4,0.1c-0.3,0.1-0.4-0.1-0.6-0.1 c-0.3,0.1-0.2,0.1-0.9,0.1c0.4,0.1,0.1,0.1,0,0.1c-0.4-0.1-0.6,0-0.8,0.1c-0.4-0.1,0.5-0.1,0.1-0.2c-0.5,0-1,0-1.5,0 c0.3,0,0.6,0,0.4-0.1c-0.5,0-0.2-0.1-0.6-0.1c-0.1,0.1-0.7,0-1-0.1c-0.5,0-0.9,0-0.9,0.1c-0.5-0.1-0.4-0.1-0.3-0.2 c-0.5,0.1-1.3,0-1.4,0.1c-0.2,0-0.4-0.1-0.6-0.1c-0.2,0.2,1.9,0.2,1.8,0.3c-0.5,0-1.1-0.1-1.6-0.1c0.2,0.2-0.7,0.2-0.7,0.4 c-0.5-0.1-1.7,0-2.8-0.1c0.5,0,0.6-0.1,1.2-0.1c-0.9-0.1-1.9-0.3-3-0.2c-0.8-0.2-1.9-0.1-2.8-0.3c-0.3,0.1-1.2-0.1-1.2-0.1 C437.4,342.8,443.9,343.3,443.9,343.3z" />
        </g>
        <rect class="st3" width="600" height="600" />
    </svg>